<?xml version="1.0" encoding="utf-8"?>
<!-- Generator: Adobe Illustrator 16.0.0, SVG Export Plug-In . SVG Version: 6.00 Build 0)  -->
<!DOCTYPE svg PUBLIC "-//W3C//DTD SVG 1.1//EN" "http://www.w3.org/Graphics/SVG/1.1/DTD/svg11.dtd">
<svg version="1.1" id="Camada_1" xmlns="http://www.w3.org/2000/svg" xmlns:xlink="http://www.w3.org/1999/xlink" x="0px" y="0px"
	 width="75px" height="75px" viewBox="0 0 75 75" enable-background="new 0 0 75 75" xml:space="preserve">
<g>
	<g>
		<path fill="#FFFFFF" d="M75,37.498C75,58.209,58.211,75,37.499,75C16.789,75,0,58.209,0,37.498C0,16.79,16.789,0,37.499,0
			C58.211,0,75,16.79,75,37.498z"/>
	</g>
	<g>
		<path id="f_3_" fill="#355085" d="M39.113,56.928V40.034h5.671l0.852-6.589h-6.522v-4.205c0-1.906,0.528-3.205,3.267-3.205h3.484
			v-5.893c-0.603-0.077-2.671-0.259-5.079-0.259c-5.028,0-8.469,3.071-8.469,8.704v4.857h-5.688v6.589h5.688v16.894H39.113z"/>
	</g>
</g>
</svg>
