<?xml version="1.0" encoding="utf-8"?>
<!-- Generator: Adobe Illustrator 25.0.1, SVG Export Plug-In . SVG Version: 6.00 Build 0)  -->
<svg version="1.1" id="Camada_1" xmlns="http://www.w3.org/2000/svg" xmlns:xlink="http://www.w3.org/1999/xlink" x="0px" y="0px"
	 viewBox="0 0 1190 308" style="enable-background:new 0 0 1190 308;" xml:space="preserve">
<style type="text/css">
	.st0{fill:#FF8400;}
	.st1{fill:#868588;stroke:#868588;stroke-width:0.3063;stroke-miterlimit:10;}
</style>
<g>
	<g>
		<g>
			<path class="st0" d="M130.07,81.14c0.98-3.41,2.69-9.65,5.17-18.7c2.47-9.06,8.07-16.34,16.82-21.86
				c8.73-5.51,18.22-8.26,28.46-8.26h173.85l8.77-30.71L165.19,1.21c-17.85,0-36.29,4.08-55.33,12.2
				C83.98,24.43,68.69,38.23,64,54.75L18.76,213.03h73.41l29.21-100.8h207.58l8.68-31.1H130.07z M714.6,42.16
				c-2.35-13.39-11.56-23.88-27.59-31.5c-13.19-6.29-27.13-9.45-41.82-9.45H384.94l-8.69,31.1h236.23c7.09,0,13.38,1.44,18.87,4.33
				c6.65,3.4,10.55,8.4,11.69,14.97c0.62,3.4,0.35,7.21-0.73,11.41l-3.36,12.2H418.46c-36.21,0-57.72,12.08-64.48,36.22
				l-17.04,61.81c-0.64,2.39-0.6,5.53,0.08,9.46c3.57,20.22,22.14,30.32,55.75,30.32h277.96L714.6,55.54
				C715.34,50.81,715.34,46.36,714.6,42.16 M610.14,177.59H436.9c-16.28,0-24.23-5.66-23.86-17.02l9.85-35.62
				c2.57-9.25,7.6-15.06,15.05-17.43c3.96-1.32,12.1-1.99,24.44-1.99h167.73L610.14,177.59z M1189.47,41.37
				c-2.32-13.13-11.76-23.48-28.32-31.1c-13.14-6.04-27.2-9.07-42.17-9.07H746.94l-59.12,211.82h73.25l50.35-181.11H931.1
				l-50.74,181.11h73.61l50.36-181.11h81.88c17.59,0,27.53,6.45,29.8,19.29c0.69,3.93,0.46,7.87-0.68,11.82l-42.06,150h71.65
				l44.47-158.67C1190.18,49.89,1190.19,45.57,1189.47,41.37"/>
		</g>
	</g>
	<g>
		<path class="st1" d="M61.4,244.79l-3.21,10.39H37.24c-3.72,0-6.95,0.89-9.69,2.66c-2.75,1.78-4.76,3.75-6.05,5.91
			c-1.29,2.17-2.36,4.17-3.2,6c-0.85,1.83-1.55,3.65-2.11,5.45l-0.34,1.1l-0.29,0.93c-0.24,0.79-0.48,1.65-0.71,2.58
			c-0.23,0.93-0.47,2.06-0.71,3.38c-0.24,1.32-0.3,2.74-0.18,4.27c0.12,1.52,0.52,2.93,1.18,4.22c0.95,1.46,2.19,2.38,3.7,2.75
			c1.52,0.37,3.57,0.55,6.15,0.55h20.9l-3.26,10.56H21.26c-4.04,0-7.37-0.35-9.99-1.06c-2.62-0.7-5.03-2.12-7.23-4.27
			c-2.52-2.93-3.86-6.45-4.02-10.56c-0.16-4.11,0.5-8.56,1.97-13.35l1.12-3.63c0.68-2.2,1.57-4.34,2.66-6.42
			c1.09-2.08,2.27-4.05,3.52-5.91c1.25-1.86,2.54-3.49,3.88-4.9c1.33-1.41,3.15-2.98,5.43-4.73c2.28-1.74,4.79-3.03,7.53-3.84
			c2.73-0.82,5.22-1.36,7.48-1.65c2.25-0.28,4.48-0.42,6.68-0.42H61.4z"/>
		<path class="st1" d="M119.68,244.79l-3.26,10.56H95.48c-4.56,0-8.47,1.2-11.71,3.59c-3.25,2.39-5.59,5.93-7.03,10.6h35.31
			l-3.26,10.56H73.47c-1.57,5.07-1.74,8.63-0.51,10.69c1.22,2.06,2.58,3.27,4.07,3.63c1.49,0.37,3.56,0.55,6.21,0.55h20.95
			l-3.26,10.56H79.47c-4.05,0-7.4-0.35-10.02-1.06c-2.63-0.7-5.05-2.12-7.25-4.27c-2.53-2.93-3.88-6.45-4.05-10.56
			c-0.17-4.11,0.49-8.56,1.97-13.35l1.29-3.63c0.68-2.2,1.57-4.34,2.66-6.42c1.09-2.08,2.27-4.05,3.52-5.91
			c1.25-1.86,2.54-3.49,3.88-4.9c1.33-1.41,3.14-2.98,5.43-4.73c2.28-1.74,4.79-3.03,7.52-3.84c2.73-0.82,5.22-1.36,7.48-1.65
			c2.25-0.28,4.48-0.42,6.68-0.42H119.68z"/>
		<path class="st1" d="M128.13,305.52h-13.09l18.75-60.74h16.22l11.24,43.76l13-43.76h12.84l-18.75,60.74h-14.7l-11.85-45.87
			L128.13,305.52z"/>
		<path class="st1" d="M209.98,305.52h-13.26l15.44-50.01h-19.43l3.26-10.56h52.29l-3.26,10.56h-19.6L209.98,305.52z"/>
		<path class="st1" d="M251.46,305.52H238.7l18.75-60.74h31.34c1.58,0,3.17,0.08,4.78,0.25c1.61,0.17,3.37,0.49,5.27,0.97
			c1.91,0.48,3.49,1.6,4.74,3.38c1.25,1.77,1.95,3.82,2.08,6.12c-0.03,2.48-0.45,5.01-1.25,7.6c-0.89,2.87-2.11,5.46-3.67,7.77
			c-1.69,2.37-3.65,4.32-5.87,5.87c-2.23,1.55-4.85,2.66-7.87,3.34l7.1,25.43h-14.28l-6.1-23.74h-14.95L251.46,305.52z
			 M282.47,255.68h-15.62l-4.75,15.37h15.62c2.31,0,4.28-0.14,5.92-0.42c1.63-0.28,3.23-1.01,4.78-2.2c1.38-1.18,2.42-2.9,3.11-5.15
			c1.01-3.27,0.65-5.35-1.07-6.25C288.74,256.14,286.08,255.68,282.47,255.68z"/>
		<path class="st1" d="M316.33,261.77c2.67-4.45,5.43-7.74,8.29-9.88c2.86-2.14,5.37-3.7,7.53-4.69c2.16-0.98,4.35-1.75,6.57-2.28
			c2.22-0.53,4.17-0.89,5.86-1.06c1.69-0.17,3.6-0.25,5.74-0.25c4.05,0,7.16,0.3,9.31,0.89c2.15,0.59,3.62,1.03,4.41,1.31
			c0.78,0.28,1.85,0.86,3.18,1.73c1.33,0.87,2.41,1.99,3.23,3.34c2.02,2.76,2.99,6.35,2.93,10.77c-0.07,4.42-0.82,8.94-2.25,13.56
			c-1.41,4.56-3.46,9.11-6.15,13.64c-2.7,4.53-5.95,8.18-9.76,10.94c-3.81,2.76-7.86,4.62-12.15,5.57c-4.3,0.96-8.33,1.44-12.1,1.44
			c-3.78,0-7.28-0.42-10.51-1.27c-1.11-0.22-2.11-0.52-2.98-0.89c-0.87-0.37-1.92-0.94-3.14-1.73c-1.22-0.79-2.37-1.87-3.43-3.25
			c-1.07-1.38-1.83-3-2.3-4.86c-0.47-1.86-0.66-4.42-0.58-7.69c0.08-3.27,0.86-7.29,2.34-12.08
			C311.81,270.35,313.8,265.93,316.33,261.77z M327.99,266.13c-1.51,2.7-2.77,5.68-3.77,8.94c-0.99,3.2-1.61,6.98-1.85,11.34
			c-0.25,4.36,1.08,7.11,3.99,8.26c2.91,1.15,5.49,1.73,7.75,1.73c2.2,0,4.4-0.31,6.62-0.93c5.38-1.74,9.53-5.42,12.45-11.04
			c1.67-2.87,3-5.9,3.99-9.1c1.01-3.26,1.56-5.92,1.66-7.97c0.1-2.05,0.13-3.36,0.11-3.92c-0.02-0.56-0.18-1.42-0.47-2.57
			c-0.29-1.15-0.87-2.26-1.72-3.33c-0.86-1.07-1.88-1.81-3.07-2.23c-1.2-0.42-2.3-0.72-3.32-0.88c-1.02-0.17-2.09-0.25-3.22-0.25
			c-2.09,0-4.24,0.31-6.45,0.93C335.81,256.67,331.57,260.35,327.99,266.13z"/>
		<path class="st1" d="M408.18,281.62l11.37-36.83h12.76l-11.27,36.49c-0.35,1.13-0.64,2.27-0.89,3.42
			c-0.25,1.15-0.44,2.48-0.59,3.97c-0.15,1.49,0.08,2.84,0.69,4.05c0.61,1.21,1.72,2.14,3.32,2.79c1.6,0.65,3.75,0.97,6.46,0.97
			c3.6,0,6.55-0.56,8.84-1.69c2.29-1.13,4.14-2.75,5.55-4.86c1.41-2.11,2.68-5,3.81-8.66l11.27-36.49h12.67l-11.37,36.83
			c-0.49,1.58-1.03,3.16-1.63,4.73c-0.6,1.58-1.22,3.13-1.86,4.65c-1.24,2.53-3.84,5.7-7.81,9.5c-3.97,3.8-11.49,5.7-22.57,5.7
			c-11.24,0-17.64-1.76-19.17-5.28c-1.54-3.52-2.29-5.94-2.25-7.26c0.04-1.32,0.1-2.38,0.17-3.17c0.07-0.79,0.27-1.69,0.58-2.7
			c0.24-0.79,0.47-1.53,0.69-2.24c0.22-0.7,0.43-1.39,0.64-2.07L408.18,281.62z"/>
		<path class="st1" d="M481.81,305.52h-13.09l18.75-60.74h16.22l11.24,43.76l13-43.76h12.84l-18.75,60.74h-14.7l-11.85-45.87
			L481.81,305.52z"/>
		<path class="st1" d="M555.98,244.79h13.35l-18.75,60.74h-13.35L555.98,244.79z"/>
		<path class="st1" d="M640.87,244.79l-43.93,60.74h-13.26l-7.6-60.74h14.36l4.29,45.19l32.62-45.19H640.87z"/>
		<path class="st1" d="M692.9,244.79l-3.26,10.56h-20.95c-4.56,0-8.47,1.2-11.71,3.59c-3.25,2.39-5.59,5.93-7.03,10.6h35.31
			L682,280.1h-35.31c-1.57,5.07-1.74,8.63-0.51,10.69c1.22,2.06,2.58,3.27,4.07,3.63c1.49,0.37,3.56,0.55,6.21,0.55h20.95
			l-3.26,10.56h-21.46c-4.05,0-7.4-0.35-10.02-1.06c-2.63-0.7-5.05-2.12-7.25-4.27c-2.53-2.93-3.88-6.45-4.05-10.56
			c-0.17-4.11,0.49-8.56,1.97-13.35l1.29-3.63c0.68-2.2,1.57-4.34,2.66-6.42c1.09-2.08,2.27-4.05,3.52-5.91
			c1.25-1.86,2.54-3.49,3.88-4.9c1.33-1.41,3.14-2.98,5.43-4.73c2.28-1.74,4.79-3.03,7.52-3.84c2.73-0.82,5.22-1.36,7.48-1.65
			c2.25-0.28,4.48-0.42,6.68-0.42H692.9z"/>
		<path class="st1" d="M701.01,305.52h-12.76l18.75-60.74h31.34c1.58,0,3.17,0.08,4.78,0.25c1.61,0.17,3.37,0.49,5.27,0.97
			c1.91,0.48,3.49,1.6,4.74,3.38c1.25,1.77,1.95,3.82,2.08,6.12c-0.03,2.48-0.45,5.01-1.25,7.6c-0.89,2.87-2.11,5.46-3.67,7.77
			c-1.69,2.37-3.65,4.32-5.87,5.87c-2.23,1.55-4.85,2.66-7.87,3.34l7.1,25.43h-14.28l-6.1-23.74h-14.95L701.01,305.52z
			 M732.03,255.68H716.4l-4.75,15.37h15.62c2.31,0,4.28-0.14,5.92-0.42c1.63-0.28,3.23-1.01,4.78-2.2c1.38-1.18,2.42-2.9,3.11-5.15
			c1.01-3.27,0.65-5.35-1.07-6.25C738.29,256.14,735.63,255.68,732.03,255.68z"/>
		<path class="st1" d="M791.06,244.79h33.54l-3.37,10.9h-31.51c-6.64,0-10.79,2.65-12.42,7.94c-0.7,2.25-0.44,3.89,0.77,4.9
			c1.12,1.13,2.89,1.69,5.31,1.69h16.81c3.27,0,6.1,0.23,8.49,0.68c2.15,0.51,4.11,1.87,5.87,4.1s1.71,6.35-0.15,12.37
			c-0.5,1.63-1.1,3.14-1.78,4.52c-0.68,1.38-1.69,3-3.02,4.86c-1.34,1.86-3.14,3.49-5.4,4.9c-2.26,1.41-4.75,2.39-7.46,2.96
			c-2.5,0.62-5.58,0.93-9.24,0.93h-33.96l3.37-10.9h31.93c3.15,0,5.73-0.46,7.74-1.39c2-0.93,3.41-2.69,4.21-5.28l0.39-1.27
			c0.37-1.74,0.31-3.01-0.18-3.8c-0.7-0.84-1.61-1.41-2.74-1.69c-1.13-0.28-2.54-0.42-4.23-0.42h-15.06
			c-6.49,0-11.08-1.35-13.77-4.05c-2.69-2.7-3.05-7.24-1.09-13.6c0.99-3.21,2.41-6.08,4.27-8.62c1.85-2.53,3.92-4.49,6.2-5.87
			c2.29-1.38,4.72-2.35,7.32-2.91C784.29,245.1,787.34,244.79,791.06,244.79z"/>
		<path class="st1" d="M839.97,244.79h13.35l-18.75,60.74h-13.35L839.97,244.79z"/>
		<path class="st1" d="M876.63,305.52h-13.26l15.44-50.01h-19.43l3.26-10.56h52.29l-3.26,10.56h-19.59L876.63,305.52z"/>
		<path class="st1" d="M910.67,305.52h-13.52l44.27-60.74h13.51l7.18,60.74h-14.19l-1.09-14.53h-26.44L910.67,305.52z
			 M927.84,280.27H946l-2.04-23.23L927.84,280.27z M949.14,239.21h-5.83l11.74-11.74h12.16L949.14,239.21z"/>
		<path class="st1" d="M982.05,305.52h-12.76l18.75-60.74h31.34c1.58,0,3.17,0.08,4.78,0.25c1.61,0.17,3.37,0.49,5.27,0.97
			c1.91,0.48,3.49,1.6,4.74,3.38c1.25,1.77,1.95,3.82,2.08,6.12c-0.03,2.48-0.45,5.01-1.25,7.6c-0.89,2.87-2.11,5.46-3.67,7.77
			c-1.69,2.37-3.65,4.32-5.87,5.87c-2.23,1.55-4.85,2.66-7.87,3.34l7.1,25.43h-14.28l-6.1-23.74h-14.95L982.05,305.52z
			 M1013.06,255.68h-15.63l-4.75,15.37h15.63c2.31,0,4.28-0.14,5.92-0.42c1.63-0.28,3.23-1.01,4.78-2.2
			c1.38-1.18,2.42-2.9,3.11-5.15c1.01-3.27,0.65-5.35-1.07-6.25C1019.33,256.14,1016.67,255.68,1013.06,255.68z"/>
		<path class="st1" d="M1054.27,244.79h13.35l-18.75,60.74h-13.35L1054.27,244.79z"/>
		<path class="st1" d="M1075.89,261.77c2.67-4.45,5.43-7.74,8.29-9.88c2.86-2.14,5.37-3.7,7.53-4.69s4.35-1.75,6.58-2.28
			c2.22-0.53,4.17-0.89,5.86-1.06c1.69-0.17,3.6-0.25,5.74-0.25c4.05,0,7.16,0.3,9.31,0.89c2.15,0.59,3.62,1.03,4.41,1.31
			c0.79,0.28,1.85,0.86,3.18,1.73c1.33,0.87,2.41,1.99,3.23,3.34c2.02,2.76,2.99,6.35,2.93,10.77c-0.07,4.42-0.82,8.94-2.24,13.56
			c-1.41,4.56-3.46,9.11-6.16,13.64c-2.7,4.53-5.95,8.18-9.76,10.94c-3.81,2.76-7.86,4.62-12.16,5.57
			c-4.29,0.96-8.33,1.44-12.1,1.44c-3.77,0-7.28-0.42-10.51-1.27c-1.11-0.22-2.11-0.52-2.98-0.89c-0.87-0.37-1.92-0.94-3.14-1.73
			c-1.22-0.79-2.37-1.87-3.43-3.25c-1.07-1.38-1.83-3-2.3-4.86c-0.47-1.86-0.66-4.42-0.58-7.69c0.08-3.27,0.86-7.29,2.34-12.08
			C1071.38,270.35,1073.36,265.93,1075.89,261.77z M1087.55,266.13c-1.51,2.7-2.77,5.68-3.77,8.94c-0.99,3.2-1.61,6.98-1.85,11.34
			c-0.25,4.36,1.08,7.11,4,8.26c2.91,1.15,5.49,1.73,7.74,1.73c2.2,0,4.4-0.31,6.62-0.93c5.38-1.74,9.53-5.42,12.45-11.04
			c1.67-2.87,3-5.9,3.99-9.1c1.01-3.26,1.56-5.92,1.66-7.97c0.1-2.05,0.13-3.36,0.11-3.92c-0.02-0.56-0.18-1.42-0.47-2.57
			c-0.29-1.15-0.86-2.26-1.72-3.33c-0.86-1.07-1.88-1.81-3.07-2.23c-1.2-0.42-2.3-0.72-3.32-0.88c-1.02-0.17-2.09-0.25-3.22-0.25
			c-2.09,0-4.23,0.31-6.45,0.93C1095.37,256.67,1091.14,260.35,1087.55,266.13z"/>
	</g>
</g>
</svg>
