<?xml version="1.0" encoding="utf-8"?>
<!-- Generator: Adobe Illustrator 16.0.0, SVG Export Plug-In . SVG Version: 6.00 Build 0)  -->
<!DOCTYPE svg PUBLIC "-//W3C//DTD SVG 1.1//EN" "http://www.w3.org/Graphics/SVG/1.1/DTD/svg11.dtd">
<svg version="1.1" id="Camada_1" xmlns="http://www.w3.org/2000/svg" xmlns:xlink="http://www.w3.org/1999/xlink" x="0px" y="0px"
	 width="75px" height="75px" viewBox="0 0 75 75" enable-background="new 0 0 75 75" xml:space="preserve">
<g>
	<g>
		<path fill="#FFFFFF" d="M75,37.498C75,58.209,58.211,75,37.499,75C16.789,75,0,58.209,0,37.498C0,16.79,16.789,0,37.499,0
			C58.211,0,75,16.79,75,37.498z"/>
	</g>
	<g>
		<path fill="#C4483E" d="M37.499,25.427c3.114,0,5.943,1.188,8.086,3.124l5.042-5.395c-3.461-3.168-8.065-5.102-13.128-5.102
			c-7.443,0-13.908,4.184-17.174,10.332l5.933,4.749C28.007,28.629,32.373,25.427,37.499,25.427z"/>
		<path fill="#E4B02C" d="M25.435,37.491c0-1.537,0.299-3.003,0.824-4.355l-5.933-4.749c-1.443,2.714-2.264,5.812-2.264,9.104
			c0,3.307,0.828,6.418,2.284,9.146l5.896-4.833C25.73,40.461,25.435,39.012,25.435,37.491z"/>
		<path fill="#3B9851" d="M44.209,47.511c-1.92,1.289-4.225,2.046-6.707,2.046c-5.146,0-9.525-3.223-11.261-7.753l-5.896,4.83
			c3.272,6.128,9.727,10.294,17.153,10.294c4.827,0,9.236-1.762,12.633-4.671L44.209,47.511z"/>
		<path fill="#4A72B1" d="M56.939,37.491c0-1.123-0.104-2.223-0.289-3.296H38.283v6.871h10.742
			c-0.823,2.664-2.553,4.925-4.816,6.444l5.923,4.746C54.296,48.691,56.939,43.401,56.939,37.491z"/>
	</g>
</g>
</svg>
