<?xml version="1.0" encoding="utf-8"?>
<!-- Generator: Adobe Illustrator 21.0.2, SVG Export Plug-In . SVG Version: 6.00 Build 0)  -->
<svg version="1.1" id="Camada_1" xmlns="http://www.w3.org/2000/svg" xmlns:xlink="http://www.w3.org/1999/xlink" x="0px" y="0px"
	 viewBox="0 0 320 89" style="enable-background:new 0 0 320 89;" xml:space="preserve">
<style type="text/css">
	.st0{fill:#FF6600;}
</style>
<g>
	<g>
		<g>
			<path class="st0" d="M33.6,37.6c0.3-0.9,0.7-2.6,1.4-5c0.7-2.4,2.2-4.4,4.5-5.8c2.3-1.5,4.9-2.2,7.6-2.2h46.3l2.3-8.2L43,16.3
				c-4.8,0-9.7,1.1-14.7,3.2c-6.9,2.9-11,6.6-12.2,11L4,72.7h19.6l7.8-26.9h55.3l2.3-8.3H33.6z M189.4,27.2
				c-0.6-3.6-3.1-6.4-7.3-8.4c-3.5-1.7-7.2-2.5-11.1-2.5h-69.3l-2.3,8.3h62.9c1.9,0,3.6,0.4,5,1.2c1.8,0.9,2.8,2.2,3.1,4
				c0.2,0.9,0.1,1.9-0.2,3l-0.9,3.2h-58.7c-9.6,0-15.4,3.2-17.2,9.6l-4.5,16.5c-0.2,0.6-0.2,1.5,0,2.5c0.9,5.4,5.9,8.1,14.9,8.1h74
				l11.7-42C189.6,29.5,189.6,28.3,189.4,27.2 M161.5,63.3h-46.1c-4.3,0-6.5-1.5-6.4-4.5l2.6-9.5c0.7-2.5,2-4,4-4.6
				c1.1-0.4,3.2-0.5,6.5-0.5h44.7L161.5,63.3z M315.9,27c-0.6-3.5-3.1-6.3-7.5-8.3c-3.5-1.6-7.2-2.4-11.2-2.4H198l-15.7,56.4h19.5
				l13.4-48.2H247l-13.5,48.2h19.6l13.4-48.2h21.8c4.7,0,7.3,1.7,7.9,5.1c0.2,1,0.1,2.1-0.2,3.1l-11.2,40H304l11.8-42.3
				C316,29.3,316.1,28.1,315.9,27"/>
		</g>
	</g>
</g>
</svg>
