<svg class="area-curso__svg" xmlns="http://www.w3.org/2000/svg" width="21.011" height="32" viewBox="0 0 21.011 32"><g transform="translate(-54.575 -3.409)"><g transform="translate(57.469 6.274)"><g transform="translate(0)"><path d="M161.246,101.473h-1.589a5.528,5.528,0,0,0-.369-.892l1.123-1.124a.744.744,0,0,0,0-1.051l-1.322-1.322a.745.745,0,0,0-1.051,0l-1.124,1.124a5.522,5.522,0,0,0-.892-.369V96.249a.745.745,0,0,0-.744-.744h-1.87a.744.744,0,0,0-.743.744v1.589a5.53,5.53,0,0,0-.892.369l-1.124-1.124a.745.745,0,0,0-1.051,0l-1.322,1.322a.743.743,0,0,0,0,1.051l1.124,1.124a5.523,5.523,0,0,0-.369.892H147.44a.744.744,0,0,0-.743.744v1.87a.744.744,0,0,0,.743.743h1.589a5.527,5.527,0,0,0,.369.892l-1.124,1.123a.744.744,0,0,0,0,1.051l1.322,1.322a.744.744,0,0,0,1.051,0l1.123-1.124a5.524,5.524,0,0,0,.892.369v1.589a.744.744,0,0,0,.743.743h1.87a.744.744,0,0,0,.744-.743v-1.589a5.526,5.526,0,0,0,.892-.369l1.124,1.124a.744.744,0,0,0,1.052,0l1.322-1.322a.744.744,0,0,0,0-1.051l-1.123-1.123a5.524,5.524,0,0,0,.369-.892h1.589a.744.744,0,0,0,.744-.743v-1.87A.744.744,0,0,0,161.246,101.473Zm-.306,2.308h-1.683a.525.525,0,0,0-.511.405,4.486,4.486,0,0,1-.558,1.348.525.525,0,0,0,.075.648l1.19,1.19-.89.89-1.19-1.19a.525.525,0,0,0-.648-.075,4.49,4.49,0,0,1-1.348.558.525.525,0,0,0-.405.511v1.683h-1.258v-1.683a.525.525,0,0,0-.405-.511,4.484,4.484,0,0,1-1.348-.558.525.525,0,0,0-.648.075l-1.19,1.19-.89-.89,1.19-1.19a.525.525,0,0,0,.075-.648,4.487,4.487,0,0,1-.558-1.348.525.525,0,0,0-.511-.405h-1.683v-1.258h1.683a.525.525,0,0,0,.511-.405,4.488,4.488,0,0,1,.558-1.348.525.525,0,0,0-.075-.648l-1.19-1.19.89-.89,1.19,1.19a.525.525,0,0,0,.648.075,4.486,4.486,0,0,1,1.348-.558.525.525,0,0,0,.405-.511V96.554h1.258v1.683a.525.525,0,0,0,.405.511,4.488,4.488,0,0,1,1.348.558.525.525,0,0,0,.648-.075l1.19-1.19.89.89-1.19,1.19a.525.525,0,0,0-.075.648,4.488,4.488,0,0,1,.558,1.348.525.525,0,0,0,.511.405h1.683Z" transform="translate(-146.697 -95.505)"></path></g></g><g transform="translate(62.305 11.11)"><g transform="translate(0)"><path d="M218.631,164.628a2.811,2.811,0,1,0,2.811,2.811A2.814,2.814,0,0,0,218.631,164.628Zm0,4.572a1.761,1.761,0,1,1,1.761-1.761A1.763,1.763,0,0,1,218.631,169.2Z" transform="translate(-215.82 -164.628)"></path></g></g><g transform="translate(65.815 3.409)"><path d="M275.767,63.771a10.551,10.551,0,0,0-9.179-9.222.525.525,0,1,0-.127,1.042,9.45,9.45,0,0,1,8.264,8.3.525.525,0,0,0,.52.464.544.544,0,0,0,.062,0A.525.525,0,0,0,275.767,63.771Z" transform="translate(-265.999 -54.545)"></path></g><g transform="translate(54.575 3.41)"><path d="M125.868,65.77a.524.524,0,0,0-.586.455,9.454,9.454,0,0,1-4.375,6.839,3.53,3.53,0,0,0-1.668,3v2.159H112.5V76.018A3.455,3.455,0,0,0,110.88,73.1,9.491,9.491,0,0,1,114.708,55.6a.525.525,0,1,0-.129-1.041,10.54,10.54,0,0,0-4.251,19.428,2.4,2.4,0,0,1,1.119,2.03V78.3a1.366,1.366,0,0,0-.918,1.288v.748a1.356,1.356,0,0,0,.291.84,1.356,1.356,0,0,0-.291.839v.748a1.366,1.366,0,0,0,1.364,1.364h1.649v1.186a1.242,1.242,0,0,0,1.241,1.241h2.168a1.242,1.242,0,0,0,1.241-1.241V84.128h1.649a1.366,1.366,0,0,0,1.364-1.364v-.748a1.356,1.356,0,0,0-.291-.839,1.356,1.356,0,0,0,.291-.84V79.59a1.365,1.365,0,0,0-.918-1.288V76.066a2.486,2.486,0,0,1,1.177-2.113,10.5,10.5,0,0,0,4.858-7.6A.524.524,0,0,0,125.868,65.77Zm-8.725,19.544a.194.194,0,0,1-.191.191h-2.168a.194.194,0,0,1-.191-.191V84.128h2.551Zm3.014-2.55a.319.319,0,0,1-.315.315h-7.949a.319.319,0,0,1-.315-.315v-.748a.319.319,0,0,1,.315-.315h7.949a.319.319,0,0,1,.315.315Zm0-2.427a.319.319,0,0,1-.315.315h-7.949a.319.319,0,0,1-.315-.315v-.748a.319.319,0,0,1,.315-.315h7.949a.319.319,0,0,1,.315.315v.748Z" transform="translate(-105.328 -54.556)"></path></g></g></svg>